<svg width="76" height="107" viewBox="0 0 76 107" fill="none" xmlns="http://www.w3.org/2000/svg">
<path fill-rule="evenodd" clip-rule="evenodd" d="M0 34.2C0 15.3211 17.0216 0 38 0C58.9784 0 76 15.3211 76 34.2C76 64.6 38 106.4 38 106.4C38 106.4 0 64.6 0 34.2ZM40.0551 11.3999C42.8165 11.3999 45.0551 13.6385 45.0551 16.3999V28.3323H56.9874C59.7489 28.3323 61.9874 30.5709 61.9874 33.3323V37.4426C61.9874 40.204 59.7489 42.4426 56.9874 42.4426H45.0551V54.3749C45.0551 57.1363 42.8165 59.3749 40.0551 59.3749H35.9448C33.1834 59.3749 30.9448 57.1363 30.9448 54.3749V42.4426H19.0125C16.251 42.4426 14.0125 40.204 14.0125 37.4426V33.3323C14.0125 30.5709 16.251 28.3323 19.0125 28.3323H30.9448V16.3999C30.9448 13.6385 33.1834 11.3999 35.9448 11.3999H40.0551Z" fill="url(#paint0_radial_210_194)"/>
<defs>
<radialGradient id="paint0_radial_210_194" cx="0" cy="0" r="1" gradientUnits="userSpaceOnUse" gradientTransform="translate(38 1.48841e-06) rotate(90) scale(106.4 76)">
<stop stop-color="#20D9DB"/>
<stop offset="1" stop-color="#30B2FE"/>
</radialGradient>
</defs>
</svg>
