<svg width="595" height="577" viewBox="0 0 595 577" fill="none" xmlns="http://www.w3.org/2000/svg">
<g clip-path="url(#clip0_222_270)">
<path d="M40.478 521.692H-10.7917V522.079H40.478V521.692Z" fill="#EBEBEB"/>
<path d="M258.715 517.497H172.925V517.884H258.715V517.497Z" fill="#EBEBEB"/>
<path d="M78.5743 530.887H48.8682V531.274H78.5743V530.887Z" fill="#EBEBEB"/>
<path d="M571.55 521.506H504.692V521.893H571.55V521.506Z" fill="#EBEBEB"/>
<path d="M595.142 521.506H585.343V521.893H595.142V521.506Z" fill="#EBEBEB"/>
<path d="M409.629 526.94H337.121V527.327H409.629V526.94Z" fill="#EBEBEB"/>
<path d="M274.876 437.914H-24.0272C-26.3688 437.91 -28.6131 436.977 -30.2674 435.32C-31.9217 433.663 -32.8508 431.417 -32.8508 429.075V8.90168C-32.8304 6.57353 -31.8923 4.34743 -30.2402 2.70692C-28.5881 1.06641 -26.3555 0.143988 -24.0272 0.139999H274.876C277.22 0.139999 279.469 1.07126 281.126 2.72891C282.784 4.38656 283.715 6.63481 283.715 8.97908V429.075C283.715 431.42 282.784 433.668 281.126 435.325C279.469 436.983 277.22 437.914 274.876 437.914V437.914ZM-24.0272 0.449601C-26.2662 0.453701 -28.412 1.34599 -29.9937 2.93062C-31.5755 4.51525 -32.4638 6.66273 -32.4638 8.90168V429.075C-32.4638 431.314 -31.5755 433.462 -29.9937 435.046C-28.412 436.631 -26.2662 437.523 -24.0272 437.527H274.876C277.116 437.523 279.264 436.631 280.848 435.047C282.432 433.463 283.324 431.316 283.328 429.075V8.90168C283.324 6.6613 282.432 4.51386 280.848 2.92968C279.264 1.34549 277.116 0.453693 274.876 0.449601H-24.0272Z" fill="#EBEBEB"/>
<path d="M609.724 437.914H310.805C308.462 437.91 306.216 436.978 304.56 435.321C302.903 433.664 301.97 431.418 301.966 429.075V8.90168C301.99 6.57211 302.932 4.34603 304.587 2.70595C306.241 1.06587 308.475 0.143944 310.805 0.139999H609.724C612.05 0.148056 614.278 1.07228 615.927 2.71235C617.576 4.35243 618.512 6.5762 618.532 8.90168V429.075C618.532 431.414 617.605 433.658 615.954 435.315C614.303 436.971 612.063 437.906 609.724 437.914V437.914ZM310.805 0.449601C308.565 0.453693 306.417 1.34549 304.833 2.92968C303.249 4.51386 302.357 6.6613 302.353 8.90168V429.075C302.357 431.316 303.249 433.463 304.833 435.047C306.417 436.631 308.565 437.523 310.805 437.527H609.724C611.964 437.523 614.112 436.631 615.696 435.047C617.28 433.463 618.172 431.316 618.176 429.075V8.90168C618.172 6.6613 617.28 4.51386 615.696 2.92968C614.112 1.34549 611.964 0.453693 609.724 0.449601H310.805Z" fill="#EBEBEB"/>
<path d="M259.845 46.6729H-0.281006V506.955H259.845V46.6729Z" fill="#F0F0F0"/>
<path d="M259.845 22.6789H-0.281006V29.7842H259.845V22.6789Z" fill="#F5F5F5"/>
<path d="M259.845 22.6789H-0.281006V29.7842H259.845V22.6789Z" fill="#F5F5F5"/>
<path d="M593.393 22.6789H333.267V29.7842H593.393V22.6789Z" fill="#F5F5F5"/>
<path d="M211.16 103.175H-24.7549V117.788H211.16V103.175Z" fill="#FAFAFA"/>
<path d="M211.16 117.788H259.845V103.175H211.16V117.788Z" fill="#E0E0E0"/>
<path d="M211.16 227.015H-24.7549V241.628H211.16V227.015Z" fill="#FAFAFA"/>
<path d="M211.16 241.628H259.845V227.015H211.16V241.628Z" fill="#E0E0E0"/>
<path d="M211.16 350.855H-24.7549V365.468H211.16V350.855Z" fill="#FAFAFA"/>
<path d="M211.16 365.468H259.845V350.855H211.16V365.468Z" fill="#E0E0E0"/>
<path d="M66.6856 174.383H26.9639C24.0742 174.383 21.7317 176.725 21.7317 179.615V221.798C21.7317 224.688 24.0742 227.03 26.9639 227.03H66.6856C69.5753 227.03 71.9178 224.688 71.9178 221.798V179.615C71.9178 176.725 69.5753 174.383 66.6856 174.383Z" fill="white"/>
<path d="M50.1065 180.9H21.7317V220.312H50.1065V180.9Z" fill="#F0F0F0"/>
<path d="M58.6359 167.216H34.998C34.1003 167.216 33.3726 167.943 33.3726 168.841V172.742C33.3726 173.64 34.1003 174.367 34.998 174.367H58.6359C59.5336 174.367 60.2613 173.64 60.2613 172.742V168.841C60.2613 167.943 59.5336 167.216 58.6359 167.216Z" fill="#E0E0E0"/>
<path d="M135.014 174.383H95.2925C92.4029 174.383 90.0603 176.725 90.0603 179.615V221.798C90.0603 224.688 92.4029 227.03 95.2925 227.03H135.014C137.904 227.03 140.246 224.688 140.246 221.798V179.615C140.246 176.725 137.904 174.383 135.014 174.383Z" fill="white"/>
<path d="M118.435 180.9H90.0603V220.312H118.435V180.9Z" fill="#F0F0F0"/>
<path d="M126.965 167.216H103.327C102.429 167.216 101.701 167.943 101.701 168.841V172.742C101.701 173.64 102.429 174.367 103.327 174.367H126.965C127.862 174.367 128.59 173.64 128.59 172.742V168.841C128.59 167.943 127.862 167.216 126.965 167.216Z" fill="#E0E0E0"/>
<path d="M203.343 174.383H163.621C160.732 174.383 158.389 176.725 158.389 179.615V221.798C158.389 224.688 160.732 227.03 163.621 227.03H203.343C206.233 227.03 208.575 224.688 208.575 221.798V179.615C208.575 176.725 206.233 174.383 203.343 174.383Z" fill="white"/>
<path d="M186.764 180.9H158.389V220.312H186.764V180.9Z" fill="#F0F0F0"/>
<path d="M195.293 167.216H171.655C170.758 167.216 170.03 167.943 170.03 168.841V172.742C170.03 173.64 170.758 174.367 171.655 174.367H195.293C196.191 174.367 196.919 173.64 196.919 172.742V168.841C196.919 167.943 196.191 167.216 195.293 167.216Z" fill="#E0E0E0"/>
<path d="M45.2768 75.0477H21.5769V103.175H45.2768V75.0477Z" fill="#E0E0E0"/>
<path d="M46.1127 82.0602H26.6079V96.1779H46.1127V82.0602Z" fill="#F5F5F5"/>
<path d="M46.0353 69.0879H20.8183C19.7668 69.0879 18.9143 69.9404 18.9143 70.992V75.3264C18.9143 76.3779 19.7668 77.2304 20.8183 77.2304H46.0353C47.0868 77.2304 47.9393 76.3779 47.9393 75.3264V70.992C47.9393 69.9404 47.0868 69.0879 46.0353 69.0879Z" fill="#FAFAFA"/>
<path d="M90.6176 75.0477H66.9177V103.175H90.6176V75.0477Z" fill="#E0E0E0"/>
<path d="M91.4535 82.0602H71.9487V96.1779H91.4535V82.0602Z" fill="#F5F5F5"/>
<path d="M91.3761 69.0879H66.1592C65.1076 69.0879 64.2551 69.9404 64.2551 70.992V75.3264C64.2551 76.3779 65.1076 77.2304 66.1592 77.2304H91.3761C92.4277 77.2304 93.2801 76.3779 93.2801 75.3264V70.992C93.2801 69.9404 92.4277 69.0879 91.3761 69.0879Z" fill="#FAFAFA"/>
<path d="M135.959 75.0477H112.259V103.175H135.959V75.0477Z" fill="#E0E0E0"/>
<path d="M136.795 82.0602H117.29V96.1779H136.795V82.0602Z" fill="#F5F5F5"/>
<path d="M136.717 69.0879H111.5C110.449 69.0879 109.596 69.9404 109.596 70.992V75.3264C109.596 76.3779 110.449 77.2304 111.5 77.2304H136.717C137.769 77.2304 138.621 76.3779 138.621 75.3264V70.992C138.621 69.9404 137.769 69.0879 136.717 69.0879Z" fill="#FAFAFA"/>
<path d="M181.284 75.0477H157.584V103.175H181.284V75.0477Z" fill="#E0E0E0"/>
<path d="M182.12 82.0602H162.615V96.1779H182.12V82.0602Z" fill="#F5F5F5"/>
<path d="M182.043 69.0879H156.826C155.774 69.0879 154.922 69.9404 154.922 70.992V75.3264C154.922 76.3779 155.774 77.2304 156.826 77.2304H182.043C183.094 77.2304 183.947 76.3779 183.947 75.3264V70.992C183.947 69.9404 183.094 69.0879 182.043 69.0879Z" fill="#FAFAFA"/>
<path d="M45.7721 305.684H16.6233V350.855H45.7721V305.684Z" fill="#FAFAFA"/>
<path d="M38.5584 316.613H16.6233V339.926H38.5584V316.613Z" fill="#E6E6E6"/>
<path d="M45.772 350.855H58.4192L58.4192 305.684H45.772L45.772 350.855Z" fill="#E6E6E6"/>
<path d="M92.2121 305.684H63.0632V350.855H92.2121V305.684Z" fill="#FAFAFA"/>
<path d="M84.9984 316.613H63.0632V339.926H84.9984V316.613Z" fill="#E6E6E6"/>
<path d="M92.2122 350.855H104.859V305.684H92.2122V350.855Z" fill="#E6E6E6"/>
<path d="M138.652 305.684H109.503V350.855H138.652V305.684Z" fill="#FAFAFA"/>
<path d="M131.438 316.613H109.503V339.926H131.438V316.613Z" fill="#E6E6E6"/>
<path d="M138.652 350.855H151.299V305.684H138.652V350.855Z" fill="#E6E6E6"/>
<path d="M185.092 305.684H155.943V350.855H185.092V305.684Z" fill="#FAFAFA"/>
<path d="M177.879 316.613H155.943V339.926H177.879V316.613Z" fill="#E6E6E6"/>
<path d="M185.092 350.855H197.739V305.684H185.092V350.855Z" fill="#E6E6E6"/>
<path d="M593.393 46.6729H333.267V506.955H593.393V46.6729Z" fill="#F0F0F0"/>
<path d="M544.708 103.175H308.793V117.788H544.708V103.175Z" fill="#FAFAFA"/>
<path d="M544.708 117.788H593.393V103.175H544.708V117.788Z" fill="#E0E0E0"/>
<path d="M544.708 227.015H308.793V241.628H544.708V227.015Z" fill="#FAFAFA"/>
<path d="M544.708 241.628H593.393V227.015H544.708V241.628Z" fill="#E0E0E0"/>
<path d="M544.708 350.855H308.793V365.468H544.708V350.855Z" fill="#FAFAFA"/>
<path d="M544.708 365.468H593.393V350.855H544.708V365.468Z" fill="#E0E0E0"/>
<path d="M398.05 322.774H353.143C349.877 322.774 347.229 325.422 347.229 328.688V344.942C347.229 348.207 349.877 350.855 353.143 350.855H398.05C401.316 350.855 403.964 348.207 403.964 344.942V328.688C403.964 325.422 401.316 322.774 398.05 322.774Z" fill="white"/>
<path d="M379.304 330.143H347.229V343.27H379.304V330.143Z" fill="#F0F0F0"/>
<path d="M388.948 314.678H362.23C361.212 314.678 360.388 315.503 360.388 316.52V320.932C360.388 321.949 361.212 322.774 362.23 322.774H388.948C389.966 322.774 390.79 321.949 390.79 320.932V316.52C390.79 315.503 389.966 314.678 388.948 314.678Z" fill="#E0E0E0"/>
<path d="M475.296 322.774H430.388C427.122 322.774 424.475 325.422 424.475 328.688V344.942C424.475 348.207 427.122 350.855 430.388 350.855H475.296C478.562 350.855 481.209 348.207 481.209 344.942V328.688C481.209 325.422 478.562 322.774 475.296 322.774Z" fill="white"/>
<path d="M456.549 330.143H424.475V343.27H456.549V330.143Z" fill="#F0F0F0"/>
<path d="M466.209 314.678H439.49C438.473 314.678 437.648 315.503 437.648 316.52V320.932C437.648 321.949 438.473 322.774 439.49 322.774H466.209C467.226 322.774 468.051 321.949 468.051 320.932V316.52C468.051 315.503 467.226 314.678 466.209 314.678Z" fill="#E0E0E0"/>
<path d="M552.556 322.774H507.649C504.383 322.774 501.735 325.422 501.735 328.688V344.942C501.735 348.207 504.383 350.855 507.649 350.855H552.556C555.822 350.855 558.47 348.207 558.47 344.942V328.688C558.47 325.422 555.822 322.774 552.556 322.774Z" fill="white"/>
<path d="M533.81 330.143H501.735V343.27H533.81V330.143Z" fill="#F0F0F0"/>
<path d="M543.454 314.678H516.736C515.718 314.678 514.894 315.503 514.894 316.52V320.932C514.894 321.949 515.718 322.774 516.736 322.774H543.454C544.472 322.774 545.296 321.949 545.296 320.932V316.52C545.296 315.503 544.472 314.678 543.454 314.678Z" fill="#E0E0E0"/>
<path d="M390.961 193.516H360.511V227.015H390.961V193.516Z" fill="#E0E0E0"/>
<path d="M392.013 201.86H366.967V218.671H392.013V201.86Z" fill="#F5F5F5"/>
<path d="M392.834 190.931H358.623C357.776 190.931 357.09 191.617 357.09 192.464V193.532C357.09 194.378 357.776 195.064 358.623 195.064H392.834C393.68 195.064 394.366 194.378 394.366 193.532V192.464C394.366 191.617 393.68 190.931 392.834 190.931Z" fill="#FAFAFA"/>
<path d="M449.181 193.516H418.732V227.015H449.181V193.516Z" fill="#E0E0E0"/>
<path d="M450.249 201.86H425.202V218.671H450.249V201.86Z" fill="#F5F5F5"/>
<path d="M451.054 190.931H416.843C415.997 190.931 415.311 191.617 415.311 192.464V193.532C415.311 194.378 415.997 195.064 416.843 195.064H451.054C451.9 195.064 452.586 194.378 452.586 193.532V192.464C452.586 191.617 451.9 190.931 451.054 190.931Z" fill="#FAFAFA"/>
<path d="M507.417 193.516H476.968V227.015H507.417V193.516Z" fill="#E0E0E0"/>
<path d="M508.469 201.86H483.423V218.671H508.469V201.86Z" fill="#F5F5F5"/>
<path d="M509.29 190.931H475.079C474.233 190.931 473.546 191.617 473.546 192.464V193.532C473.546 194.378 474.233 195.064 475.079 195.064H509.29C510.136 195.064 510.822 194.378 510.822 193.532V192.464C510.822 191.617 510.136 190.931 509.29 190.931Z" fill="#FAFAFA"/>
<path d="M565.637 193.516H535.188V227.015H565.637V193.516Z" fill="#E0E0E0"/>
<path d="M566.69 201.86H541.643V218.671H566.69V201.86Z" fill="#F5F5F5"/>
<path d="M567.51 190.931H533.299C532.453 190.931 531.767 191.617 531.767 192.464V193.532C531.767 194.378 532.453 195.064 533.299 195.064H567.51C568.356 195.064 569.042 194.378 569.042 193.532V192.464C569.042 191.617 568.356 190.931 567.51 190.931Z" fill="#FAFAFA"/>
<path d="M396.348 70.8526H369.707V103.175H396.348V70.8526Z" fill="#FAFAFA"/>
<path d="M389.738 78.6855H369.707V95.3575H389.738V78.6855Z" fill="#E6E6E6"/>
<path d="M396.348 103.175H407.896V70.8526H396.348V103.175Z" fill="#E6E6E6"/>
<path d="M438.778 70.8526H412.137V103.175H438.778V70.8526Z" fill="#FAFAFA"/>
<path d="M432.168 78.6855H412.137V95.3575H432.168V78.6855Z" fill="#E6E6E6"/>
<path d="M438.778 103.175H450.326V70.8526H438.778V103.175Z" fill="#E6E6E6"/>
<path d="M481.209 70.8526H454.568V103.175H481.209V70.8526Z" fill="#FAFAFA"/>
<path d="M474.599 78.6855H454.568V95.3575H474.599V78.6855Z" fill="#E6E6E6"/>
<path d="M481.209 103.175H492.757V70.8526H481.209V103.175Z" fill="#E6E6E6"/>
<path d="M523.64 70.8526H496.999V103.175H523.64V70.8526Z" fill="#FAFAFA"/>
<path d="M517.03 78.6855H496.999V95.3575H517.03V78.6855Z" fill="#E6E6E6"/>
<path d="M523.64 103.175H535.188V70.8526H523.64V103.175Z" fill="#E6E6E6"/>
<path d="M295 576.863C460.764 576.863 595.142 569.017 595.142 559.339C595.142 549.662 460.764 541.816 295 541.816C129.236 541.816 -5.1416 549.662 -5.1416 559.339C-5.1416 569.017 129.236 576.863 295 576.863Z" fill="#F5F5F5"/>
<path d="M292.492 65.543C277.368 72.6793 275.913 93.407 281.656 110.915C285.743 123.562 275.015 124.228 272.508 142.045C271.624 148.458 272.27 154.989 274.392 161.105C276.514 167.22 280.052 172.748 284.718 177.235C289.384 181.723 295.044 185.043 301.238 186.926C307.432 188.808 313.983 189.199 320.356 188.067C347.044 183.129 321.208 127.943 331.006 108.701C340.805 89.4596 308.746 57.8959 292.492 65.543Z" fill="#263238"/>
<path d="M343.297 501.444L360.496 502.698C358.127 516.398 355.852 538.008 355.852 538.008H342.214C342.214 538.008 343.808 510.81 343.297 501.444Z" fill="#CE7A63"/>
<path d="M253.777 501.444L270.805 502.698C266.966 516.398 262.43 538.008 262.43 538.008H248.792C248.792 538.008 253.297 510.81 253.777 501.444Z" fill="#CE7A63"/>
<path d="M327.508 551.538C339.366 551.538 338.514 551.352 345.202 551.135C350.914 550.918 352.23 551.646 356.812 551.538C360.651 551.46 360.775 547.791 359.908 543.581C359.583 541.955 359.072 540.067 358.607 537.729C358.475 537.082 358.121 536.501 357.607 536.086C357.093 535.671 356.451 535.448 355.79 535.454H341.935C341.425 535.456 340.922 535.575 340.465 535.804C340.009 536.032 339.611 536.362 339.304 536.77C337.657 538.931 335.585 540.733 333.215 542.064C330.846 543.395 328.23 544.227 325.527 544.51C319.056 545.361 322.756 551.538 327.508 551.538Z" fill="#30B2FE"/>
<path d="M234.396 551.538C246.254 551.538 245.418 551.352 252.09 551.135C257.802 550.918 259.117 551.646 263.7 551.538C267.539 551.46 267.662 547.791 266.796 543.581C266.455 541.955 265.96 540.067 265.48 537.729C265.353 537.082 265.003 536.5 264.491 536.084C263.979 535.668 263.337 535.445 262.678 535.454H248.746C248.237 535.453 247.736 535.572 247.281 535.801C246.827 536.029 246.432 536.361 246.13 536.77C244.48 538.929 242.407 540.728 240.039 542.059C237.67 543.39 235.054 544.224 232.353 544.51C225.975 545.361 229.674 551.538 234.396 551.538Z" fill="#30B2FE"/>
<path d="M271.579 234.043C271.579 234.043 260.743 317.852 261.733 371.072C257.647 421.026 251.083 516.584 251.083 516.584C251.284 519.138 264.752 518.132 267.151 516.584C267.151 516.584 298.003 452.094 292.988 371.072C327.26 286.551 325.217 234.043 325.217 234.043H271.579Z" fill="#263238"/>
<path opacity="0.2" d="M315.666 301.721C313.003 312.635 309.582 324.74 305.217 337.914C303.947 311.381 296.765 275.854 296.532 274.647L315.666 301.721Z" fill="black"/>
<path d="M286.176 234.043C286.176 234.043 310.681 328.626 320.387 375.081C330.588 423.859 344.876 484.184 342.059 516.599C344.784 518.147 354.536 518.302 360.047 516.599C360.047 516.599 381.038 424.199 354.35 377.279C364.01 261.737 333.437 234.089 333.437 234.089L286.176 234.043Z" fill="#263238"/>
<path d="M340.867 509.85C340.759 512.086 340.485 514.311 340.047 516.506C340.007 516.689 340.004 516.878 340.04 517.061C340.076 517.244 340.149 517.419 340.255 517.572C340.361 517.726 340.498 517.857 340.656 517.956C340.815 518.055 340.992 518.12 341.177 518.147C347.725 519.2 357.307 517.667 360.357 517.126C360.64 517.07 360.9 516.931 361.104 516.727C361.308 516.523 361.446 516.263 361.502 515.98L362.648 509.788C362.677 509.595 362.664 509.398 362.609 509.211C362.555 509.023 362.46 508.85 362.332 508.703C362.204 508.555 362.045 508.438 361.867 508.358C361.689 508.278 361.496 508.238 361.301 508.24L342.261 508.612C341.918 508.616 341.589 508.744 341.333 508.971C341.077 509.199 340.912 509.511 340.867 509.85Z" fill="#263238"/>
<path opacity="0.1" d="M340.867 509.85C340.759 512.086 340.485 514.311 340.047 516.506C340.007 516.689 340.004 516.878 340.04 517.061C340.076 517.244 340.149 517.419 340.255 517.572C340.361 517.726 340.498 517.857 340.656 517.956C340.815 518.055 340.992 518.12 341.177 518.147C347.725 519.2 357.307 517.667 360.357 517.126C360.64 517.07 360.9 516.931 361.104 516.727C361.308 516.523 361.446 516.263 361.502 515.98L362.648 509.788C362.677 509.595 362.664 509.398 362.609 509.211C362.555 509.023 362.46 508.85 362.332 508.703C362.204 508.555 362.045 508.438 361.867 508.358C361.689 508.278 361.496 508.238 361.301 508.24L342.261 508.612C341.918 508.616 341.589 508.744 341.333 508.971C341.077 509.199 340.912 509.511 340.867 509.85Z" fill="white"/>
<path d="M249.783 509.556C249.597 511.29 249.256 514.386 248.931 516.661C248.903 516.838 248.91 517.019 248.953 517.194C248.995 517.368 249.072 517.532 249.178 517.676C249.285 517.82 249.42 517.942 249.574 518.033C249.728 518.125 249.899 518.185 250.077 518.209C255.984 518.698 261.923 518.631 267.817 518.008C268.108 517.981 268.384 517.865 268.608 517.677C268.832 517.489 268.994 517.237 269.071 516.955L270.727 510.763C270.784 510.568 270.795 510.363 270.76 510.162C270.726 509.962 270.645 509.773 270.526 509.608C270.406 509.444 270.251 509.309 270.071 509.214C269.891 509.119 269.692 509.067 269.489 509.061L251.253 508.333C250.899 508.314 250.551 508.43 250.279 508.657C250.006 508.883 249.829 509.204 249.783 509.556V509.556Z" fill="#263238"/>
<path opacity="0.1" d="M249.783 509.556C249.597 511.29 249.256 514.386 248.931 516.661C248.903 516.838 248.91 517.019 248.953 517.194C248.995 517.368 249.072 517.532 249.178 517.676C249.285 517.82 249.42 517.942 249.574 518.033C249.728 518.125 249.899 518.185 250.077 518.209C255.984 518.698 261.923 518.631 267.817 518.008C268.108 517.981 268.384 517.865 268.608 517.677C268.832 517.489 268.994 517.237 269.071 516.955L270.727 510.763C270.784 510.568 270.795 510.363 270.76 510.162C270.726 509.962 270.645 509.773 270.526 509.608C270.406 509.444 270.251 509.309 270.071 509.214C269.891 509.119 269.692 509.067 269.489 509.061L251.253 508.333C250.899 508.314 250.551 508.43 250.279 508.657C250.006 508.883 249.829 509.204 249.783 509.556V509.556Z" fill="white"/>
<path d="M188.358 169.615L191.346 173.33C191.901 174.017 192.612 174.562 193.42 174.92C194.227 175.278 195.108 175.438 195.99 175.389L204.365 174.894C206.014 174.795 207.616 174.303 209.036 173.457C210.455 172.611 211.651 171.437 212.523 170.033L213.637 168.268C209.086 161.767 199.38 158.098 199.38 158.098L196.717 156.751C195.635 156.168 194.366 156.038 193.188 156.389C192.01 156.74 191.019 157.544 190.433 158.624L187.677 163.841C187.217 164.765 187.036 165.804 187.157 166.83C187.278 167.855 187.696 168.823 188.358 169.615V169.615Z" fill="#CE7A63"/>
<path d="M205.074 140.852L190.87 143.868C189.641 144.129 188.856 145.338 189.117 146.567L192.809 163.95C193.07 165.18 194.278 165.965 195.507 165.704L209.711 162.687C210.94 162.426 211.725 161.218 211.464 159.988L207.772 142.605C207.511 141.376 206.303 140.591 205.074 140.852Z" fill="#30B2FE"/>
<path d="M162.088 107.696L160.94 108.735L164.67 112.855L165.818 111.816L162.088 107.696Z" fill="#30B2FE"/>
<path d="M216.541 123.512L209.967 131.171L211.142 132.179L217.716 124.521L216.541 123.512Z" fill="#30B2FE"/>
<path d="M169.705 116.117L168.557 117.156L184.704 134.988L185.851 133.949L169.705 116.117Z" fill="#30B2FE"/>
<path d="M162.863 133.954L162.354 135.416L181.651 142.136L182.16 140.674L162.863 133.954Z" fill="#30B2FE"/>
<path d="M201.622 137.859L192.809 139.731C192.265 139.846 191.918 140.381 192.034 140.924L193.462 147.647C193.577 148.191 194.111 148.538 194.655 148.423L203.468 146.551C204.011 146.435 204.358 145.901 204.243 145.358L202.815 138.634C202.7 138.091 202.165 137.744 201.622 137.859Z" fill="#30B2FE"/>
<path d="M201.775 132.806L190.6 135.179C190.09 135.288 189.764 135.789 189.872 136.299L190.844 140.872C190.952 141.382 191.453 141.708 191.963 141.6L203.138 139.227C203.649 139.118 203.974 138.617 203.866 138.107L202.895 133.534C202.786 133.024 202.285 132.698 201.775 132.806Z" fill="#263238"/>
<path opacity="0.8" d="M208.238 144.754L192.808 148.031L195.445 160.448L210.875 157.171L208.238 144.754Z" fill="white"/>
<path d="M288.189 161.999C287.74 162.757 287.461 163.16 287.105 163.717L286.083 165.265L284.04 168.16C282.662 170.079 281.238 171.922 279.768 173.733C276.826 177.34 273.761 180.854 270.48 184.166C263.867 191.015 256.352 196.931 248.142 201.752C246.037 202.959 243.885 204.089 241.656 205.126L239.969 205.869L239.551 206.055L239.318 206.163L238.947 206.303C238.442 206.509 237.925 206.685 237.399 206.829C235.338 207.449 233.187 207.716 231.037 207.618C227.415 207.42 223.888 206.392 220.727 204.615C218.221 203.231 215.861 201.597 213.683 199.739C209.945 196.455 206.495 192.856 203.374 188.981C201.826 187.123 200.402 185.281 198.977 183.392C198.265 182.448 197.569 181.504 196.888 180.528C196.207 179.553 195.541 178.671 194.751 177.432L214.504 166.658C214.752 167.293 215.185 168.299 215.603 169.12C216.021 169.94 216.47 170.838 216.934 171.689C217.831 173.397 218.818 175.055 219.891 176.658C221.823 179.705 224.098 182.521 226.671 185.049C227.687 186.05 228.814 186.933 230.03 187.68C230.599 188.047 231.228 188.309 231.888 188.454C231.965 188.454 231.888 188.454 231.888 188.454H232.027L232.337 188.315L233.591 187.758C235.247 186.984 236.888 186.117 238.498 185.188C241.736 183.245 244.815 181.051 247.709 178.624C250.652 176.12 253.429 173.426 256.021 170.559C258.636 167.617 261.066 164.515 263.297 161.271C264.396 159.723 265.48 158.021 266.486 156.364C266.997 155.528 267.477 154.708 267.941 153.872L268.591 152.649C268.777 152.277 269.04 151.767 269.102 151.581L288.189 161.999Z" fill="#30B2FE"/>
<path opacity="0.7" d="M288.189 161.999C287.74 162.757 287.461 163.16 287.105 163.717L286.083 165.265L284.04 168.16C282.662 170.079 281.238 171.922 279.768 173.733C276.826 177.34 273.761 180.854 270.48 184.166C263.867 191.015 256.352 196.931 248.142 201.752C246.037 202.959 243.885 204.089 241.656 205.126L239.969 205.869L239.551 206.055L239.318 206.163L238.947 206.303C238.442 206.509 237.925 206.685 237.399 206.829C235.338 207.449 233.187 207.716 231.037 207.618C227.415 207.42 223.888 206.392 220.727 204.615C218.221 203.231 215.861 201.597 213.683 199.739C209.945 196.455 206.495 192.856 203.374 188.981C201.826 187.123 200.402 185.281 198.977 183.392C198.265 182.448 197.569 181.504 196.888 180.528C196.207 179.553 195.541 178.671 194.751 177.432L214.504 166.658C214.752 167.293 215.185 168.299 215.603 169.12C216.021 169.94 216.47 170.838 216.934 171.689C217.831 173.397 218.818 175.055 219.891 176.658C221.823 179.705 224.098 182.521 226.671 185.049C227.687 186.05 228.814 186.933 230.03 187.68C230.599 188.047 231.228 188.309 231.888 188.454C231.965 188.454 231.888 188.454 231.888 188.454H232.027L232.337 188.315L233.591 187.758C235.247 186.984 236.888 186.117 238.498 185.188C241.736 183.245 244.815 181.051 247.709 178.624C250.652 176.12 253.429 173.426 256.021 170.559C258.636 167.617 261.066 164.515 263.297 161.271C264.396 159.723 265.48 158.021 266.486 156.364C266.997 155.528 267.477 154.708 267.941 153.872L268.591 152.649C268.777 152.277 269.04 151.767 269.102 151.581L288.189 161.999Z" fill="white"/>
<path d="M265.836 163.144C265.478 172.32 265.618 181.508 266.254 190.668C266.749 202.618 269.35 215.188 272.6 234.538C279.148 238.362 312.245 236.783 333.421 234.043C332.136 217.092 334.242 197.711 345.728 159.569C348.39 150.729 342.446 142.231 332.972 141.333C330.434 141.085 327.74 140.884 324.985 140.76C315.315 140.117 305.614 140.117 295.944 140.76C292.848 141.039 289.504 141.41 286.378 141.813C275.093 143.284 266.176 152.541 265.836 163.144Z" fill="#30B2FE"/>
<path d="M271.455 238.609C292.806 240.968 314.355 240.926 335.697 238.486C335.912 238.437 336.114 238.344 336.29 238.211C336.466 238.078 336.612 237.91 336.717 237.716C336.823 237.523 336.886 237.309 336.902 237.089C336.918 236.87 336.887 236.649 336.812 236.442C336.285 235.204 335.759 233.981 335.264 232.742C335.155 232.472 334.963 232.243 334.715 232.09C334.467 231.937 334.176 231.867 333.886 231.891C313.359 234.151 292.647 234.151 272.121 231.891C271.934 231.867 271.744 231.882 271.562 231.935C271.381 231.988 271.213 232.077 271.068 232.198C270.923 232.318 270.804 232.467 270.719 232.635C270.634 232.804 270.584 232.988 270.573 233.176C270.433 234.461 270.309 235.73 270.186 237.015C270.164 237.203 270.18 237.394 270.232 237.575C270.284 237.757 270.372 237.927 270.49 238.075C270.608 238.224 270.753 238.347 270.919 238.439C271.085 238.53 271.267 238.588 271.455 238.609V238.609Z" fill="#30B2FE"/>
<path d="M322.941 108.082C320.418 117.37 317.322 134.553 323.39 140.791C323.39 140.791 325.232 149.94 300.17 149.089C280.867 148.438 294.365 140.791 294.365 140.791C304.984 138.299 305.294 130.574 304.009 123.314L322.941 108.082Z" fill="#CE7A63"/>
<path d="M324.056 139.336C324.056 139.336 313.065 149.104 309.783 172.649C303.591 217.634 313.019 401.831 313.019 401.831C313.019 401.831 353.267 388.688 367.88 376.103C368.561 363.502 344.226 247.433 346.363 214.12C348.499 180.807 352.632 151.782 348.329 145.513C344.025 139.243 324.056 139.336 324.056 139.336Z" fill="#30B2FE"/>
<path opacity="0.7" d="M324.056 139.336C324.056 139.336 313.065 149.104 309.783 172.649C303.591 217.634 313.019 401.831 313.019 401.831C313.019 401.831 353.267 388.688 367.88 376.103C368.561 363.502 344.226 247.433 346.363 214.12C348.499 180.807 352.632 151.782 348.329 145.513C344.025 139.243 324.056 139.336 324.056 139.336Z" fill="white"/>
<path d="M295.139 140.265C278.39 161.767 278.514 301.52 283.359 401.877C268.483 400.081 252.585 369.911 252.585 369.911C252.585 369.911 268.684 263.455 265.588 218.408C262.492 173.361 262.925 157.556 270.232 149.228C277.538 140.9 295.139 140.265 295.139 140.265Z" fill="#30B2FE"/>
<path opacity="0.7" d="M295.139 140.265C278.39 161.767 278.514 301.52 283.359 401.877C268.483 400.081 252.585 369.911 252.585 369.911C252.585 369.911 268.684 263.455 265.588 218.408C262.492 173.361 262.925 157.556 270.232 149.228C277.538 140.9 295.139 140.265 295.139 140.265Z" fill="white"/>
<path d="M322.647 138.531C319.768 141.008 306.006 153.392 307.864 204.476C309.257 198.702 315.604 171.333 322.307 158.299C320.942 157.344 319.328 156.806 317.663 156.751C319.472 155.781 321.545 155.417 323.576 155.714C325.465 151.906 329.335 143.903 333.096 139.599C329.056 136.999 322.647 138.531 322.647 138.531Z" fill="white"/>
<path d="M282.879 204.476C282.879 204.476 285.867 156.999 295.712 140.064C291.895 139.194 287.89 139.82 284.52 141.813C282.461 144.29 279.768 153.81 279.768 155.869C281.354 155.475 283.029 155.661 284.489 156.395C282.784 156.723 281.146 157.335 279.644 158.206C278.994 161.565 278.684 179.507 282.879 204.476Z" fill="white"/>
<path d="M330.356 197.959H317.059C316.821 197.943 316.588 197.877 316.377 197.765C316.167 197.653 315.982 197.498 315.835 197.309C315.689 197.12 315.585 196.903 315.529 196.67C315.473 196.438 315.467 196.197 315.511 195.962L316.053 189.646C316.073 189.14 316.274 188.657 316.621 188.287C316.968 187.918 317.437 187.686 317.941 187.634H331.239C331.478 187.651 331.71 187.719 331.921 187.833C332.132 187.947 332.317 188.104 332.463 188.294C332.609 188.484 332.713 188.702 332.769 188.935C332.825 189.168 332.831 189.411 332.787 189.646L332.229 195.962C332.21 196.465 332.009 196.943 331.665 197.31C331.321 197.677 330.857 197.907 330.356 197.959V197.959Z" fill="white"/>
<path opacity="0.1" d="M322.57 197.959H318.948L321.734 187.634H325.356L322.57 197.959Z" fill="#30B2FE"/>
<path opacity="0.1" d="M327.601 197.959H323.994L326.781 187.634H330.387L327.601 197.959Z" fill="#30B2FE"/>
<path d="M324.288 188.717C323.638 188.717 323.158 188.346 323.235 187.866L323.653 184.971C323.74 184.702 323.917 184.471 324.153 184.316C324.39 184.161 324.672 184.092 324.954 184.12V184.12C325.604 184.12 326.084 184.491 326.022 184.971L325.604 187.866C325.512 188.135 325.332 188.365 325.093 188.519C324.855 188.673 324.571 188.743 324.288 188.717Z" fill="#30B2FE"/>
<path opacity="0.2" d="M315.217 114.29L303.994 123.299C304.315 124.999 304.486 126.724 304.505 128.454C308.53 127.881 314.319 123.516 315.062 119.336C315.414 117.676 315.466 115.967 315.217 114.29Z" fill="black"/>
<path d="M330.929 89.3203C328.096 104.413 327.214 110.853 318.545 118.082C305.588 128.918 287.786 123.221 286.037 107.834C284.489 93.9798 289.396 71.6266 304.953 66.6421C308.263 65.4326 311.836 65.1341 315.301 65.7776C318.765 66.4212 321.993 67.9832 324.647 70.3005C327.301 72.6179 329.284 75.6054 330.389 78.9511C331.494 82.2969 331.681 85.878 330.929 89.3203V89.3203Z" fill="#CE7A63"/>
<path d="M303.978 101.782C300.015 101.782 296.703 97.7569 296.548 92.6949C296.456 90.3468 297.129 88.0323 298.467 86.1004C299.039 85.248 299.801 84.5401 300.693 84.0324C301.584 83.5246 302.582 83.231 303.607 83.1747H303.777C307.74 83.1747 311.053 87.215 311.207 92.2615C311.347 97.3854 308.111 101.658 304.149 101.782H303.978ZM303.777 83.9487H303.622C302.719 84.0032 301.841 84.2664 301.056 84.7177C300.272 85.1689 299.603 85.7959 299.102 86.5494C297.832 88.3558 297.205 90.5363 297.322 92.7414C297.461 97.3854 300.573 101.162 304.133 101.07C307.693 100.977 310.573 97.0448 310.433 92.3544C310.294 87.6484 307.384 83.9487 303.777 83.9487V83.9487Z" fill="white"/>
<path d="M296.95 92.2615C296.867 92.2615 296.785 92.2343 296.718 92.1841C296.718 92.1841 295.542 91.3172 294.953 91.9364C294.921 91.9815 294.88 92.0192 294.832 92.047C294.784 92.0748 294.731 92.0919 294.676 92.0974C294.621 92.1028 294.565 92.0963 294.513 92.0784C294.46 92.0605 294.413 92.0316 294.372 91.9936C294.332 91.9556 294.3 91.9094 294.28 91.8581C294.259 91.8068 294.249 91.7517 294.251 91.6964C294.254 91.6411 294.268 91.5869 294.293 91.5375C294.318 91.4881 294.353 91.4447 294.396 91.4101C295.232 90.5122 296.532 91.085 297.183 91.5649C297.265 91.6265 297.319 91.7181 297.333 91.8198C297.348 91.9214 297.322 92.0246 297.26 92.1067C297.222 92.1524 297.175 92.1897 297.121 92.2163C297.068 92.243 297.01 92.2583 296.95 92.2615V92.2615Z" fill="white"/>
<path d="M287.848 100.358C283.885 100.358 280.573 96.3327 280.418 91.2862C280.263 86.2398 283.421 81.8899 287.461 81.766H287.631C291.594 81.766 294.907 85.7908 295.062 90.8528C295.217 95.9148 292.059 100.249 288.018 100.358H287.848ZM287.631 82.54H287.492C283.87 82.6484 281.052 86.5494 281.192 91.2553C281.331 95.9612 284.288 99.5835 287.848 99.5835H287.988C291.61 99.4752 294.427 95.5742 294.288 90.8683C294.149 86.1624 291.176 82.54 287.631 82.54V82.54Z" fill="white"/>
<path d="M320.387 75.249C314.195 89.0262 324.489 95.373 326.022 99.7074C328.174 111.658 300.944 135.389 308.994 172.556C320.728 151.782 336.858 152.773 338.607 138.794C340.356 124.398 333.143 117.122 340.805 103.361C348.468 89.5989 351.177 73.2366 337.709 70.6824C324.242 68.1282 320.387 75.249 320.387 75.249Z" fill="#263238"/>
<path d="M328.545 155.451C328.49 155.453 328.435 155.444 328.384 155.422C328.333 155.401 328.288 155.368 328.251 155.327C328.18 155.255 328.14 155.157 328.14 155.056C328.14 154.955 328.18 154.858 328.251 154.785C336.068 147.695 336.657 138.438 337.291 128.624C337.709 122.2 338.143 115.543 340.697 109.289C345.186 98.2987 348.917 82.8496 344.613 75.5276C343.999 74.4396 343.13 73.5165 342.082 72.8372C341.033 72.1579 339.836 71.7426 338.592 71.6266C338.49 71.6113 338.399 71.5579 338.336 71.4774C338.272 71.3968 338.242 71.2952 338.251 71.1932C338.255 71.1414 338.269 71.0909 338.293 71.045C338.318 70.9991 338.351 70.9588 338.392 70.9267C338.433 70.8946 338.48 70.8714 338.531 70.8587C338.581 70.8459 338.633 70.8439 338.685 70.8526C340.048 70.9763 341.361 71.4299 342.51 72.1743C343.658 72.9186 344.609 73.9314 345.279 75.1251C349.722 82.6948 346.192 97.8962 341.409 109.584C338.901 115.776 338.483 122.308 338.065 128.67C337.431 138.64 336.827 148.051 328.777 155.358C328.711 155.412 328.63 155.444 328.545 155.451V155.451Z" fill="#263238"/>
<path d="M323.917 76.9208C313.715 78.0818 295.681 76.9208 291.532 71.6266C287.384 66.3325 292.786 53.0506 304.783 50.9608C314.536 49.289 320.387 61.286 320.387 61.286C320.387 61.286 329.675 56.642 337.771 67.2768C345.155 76.9208 329.056 87.8497 323.917 76.9208Z" fill="#263238"/>
<path d="M327.756 96.6578L310.65 93.7166C310.6 93.7093 310.551 93.6916 310.508 93.6646C310.464 93.6376 310.427 93.6019 310.397 93.5598C310.368 93.5176 310.348 93.4699 310.339 93.4197C310.329 93.3694 310.33 93.3177 310.341 93.2677C310.36 93.1673 310.417 93.0784 310.501 93.0204C310.586 92.9624 310.689 92.94 310.79 92.9581L327.818 95.8993C327.905 95.917 327.984 95.9645 328.04 96.0336C328.097 96.1027 328.128 96.1893 328.128 96.2785C328.128 96.3678 328.097 96.4543 328.04 96.5235C327.984 96.5926 327.905 96.64 327.818 96.6578H327.756Z" fill="white"/>
<path d="M307.028 91.8435C306.842 93.1129 306.022 94.1036 305.217 94.0417C304.412 93.9798 303.885 92.8962 304.056 91.6268C304.226 90.3574 305.062 89.3512 305.867 89.4132C306.672 89.4751 307.198 90.5587 307.028 91.8435Z" fill="#263238"/>
<path d="M291.61 90.9302C291.424 92.1996 290.619 93.1903 289.799 93.1284C288.978 93.0664 288.467 91.9828 288.653 90.7135C288.839 89.4441 289.644 88.4534 290.464 88.5153C291.285 88.5772 291.796 89.6454 291.61 90.9302Z" fill="#263238"/>
<path d="M290.805 88.6082L287.926 87.4936C287.926 87.4936 289.133 90.0169 290.805 88.6082Z" fill="#263238"/>
<path d="M295.588 93.3451C294.055 96.179 292.167 98.806 289.969 101.162C291.393 102.85 294.303 102.339 294.303 102.339L295.588 93.3451Z" fill="#BA4D3C"/>
<path d="M300.82 107.587C300.115 107.657 299.405 107.657 298.7 107.587C298.651 107.583 298.604 107.569 298.561 107.547C298.519 107.524 298.481 107.493 298.45 107.455C298.42 107.418 298.398 107.374 298.385 107.328C298.371 107.281 298.368 107.232 298.375 107.184C298.39 107.083 298.443 106.991 298.524 106.928C298.604 106.865 298.706 106.835 298.808 106.844C300.407 106.965 302.013 106.726 303.508 106.145C305.003 105.564 306.349 104.655 307.446 103.484C307.48 103.45 307.521 103.422 307.566 103.404C307.612 103.385 307.66 103.375 307.709 103.375C307.758 103.375 307.806 103.385 307.851 103.404C307.897 103.422 307.938 103.45 307.972 103.484C308.007 103.519 308.034 103.56 308.053 103.605C308.072 103.65 308.081 103.699 308.081 103.748C308.081 103.797 308.072 103.845 308.053 103.89C308.034 103.935 308.007 103.976 307.972 104.011C306.112 106.045 303.564 107.319 300.82 107.587V107.587Z" fill="#263238"/>
<path d="M330.031 104.599C329.255 105.847 328.226 106.919 327.01 107.746C325.794 108.573 324.419 109.135 322.972 109.398C319.381 109.893 318.328 105.714 320 101.859C321.548 98.3916 325.155 93.9643 328.452 95.2491C331.75 96.534 332.152 101.302 330.031 104.599Z" fill="#CE7A63"/>
<path d="M312.028 86.1469C311.934 86.1291 311.845 86.0908 311.767 86.0346C311.69 85.9784 311.625 85.9057 311.579 85.8218C311.153 85.0133 310.532 84.3238 309.773 83.8156C309.013 83.3075 308.139 82.9967 307.229 82.9116C307.133 82.9122 307.038 82.8924 306.949 82.8534C306.861 82.8144 306.782 82.7572 306.718 82.6855C306.654 82.6138 306.605 82.5293 306.576 82.4375C306.547 82.3457 306.537 82.2488 306.548 82.153C306.568 81.9505 306.663 81.7629 306.815 81.628C306.968 81.493 307.165 81.4206 307.369 81.4255C308.523 81.5124 309.637 81.8902 310.606 82.5236C311.575 83.1569 312.368 84.0253 312.91 85.0478C312.998 85.2248 313.013 85.429 312.952 85.6169C312.891 85.8048 312.76 85.9616 312.585 86.054C312.504 86.1067 312.412 86.1421 312.316 86.1581C312.22 86.174 312.122 86.1702 312.028 86.1469Z" fill="#263238"/>
<path d="M288.684 80.992C288.538 81.0073 288.391 80.9761 288.264 80.9029C288.137 80.8297 288.036 80.7182 287.976 80.5844C287.916 80.4506 287.9 80.3012 287.93 80.1576C287.96 80.014 288.034 79.8835 288.142 79.7846C288.914 78.8506 289.891 78.1076 290.998 77.6135C292.104 77.1194 293.309 76.8876 294.52 76.9363C294.615 76.9474 294.707 76.9779 294.789 77.0259C294.872 77.0739 294.944 77.1384 295 77.2153C295.057 77.2922 295.097 77.38 295.118 77.4732C295.14 77.5663 295.141 77.6628 295.124 77.7567C295.09 77.9564 294.981 78.1358 294.821 78.2592C294.66 78.3826 294.459 78.4409 294.257 78.4224C293.298 78.3985 292.347 78.5939 291.475 78.9936C290.603 79.3933 289.834 79.9868 289.226 80.7289C289.085 80.8821 288.892 80.9762 288.684 80.992V80.992Z" fill="#263238"/>
<path d="M306.223 89.5215L303.344 88.407C303.344 88.407 304.551 90.9147 306.223 89.5215Z" fill="#263238"/>
<path d="M331.626 250.529L332.725 245.885C332.926 245.024 333.33 244.223 333.903 243.55C334.477 242.876 335.203 242.35 336.022 242.015L343.762 238.842C345.292 238.218 346.949 237.969 348.595 238.117C350.24 238.265 351.826 238.806 353.22 239.693L354.985 240.808C353.685 248.625 346.517 256.133 346.517 256.133L344.722 258.501C344.364 258.997 343.912 259.418 343.391 259.739C342.87 260.06 342.291 260.275 341.686 260.371C341.082 260.467 340.465 260.443 339.87 260.301C339.275 260.158 338.715 259.899 338.22 259.538L333.499 256.024C332.688 255.388 332.08 254.53 331.747 253.554C331.415 252.579 331.373 251.528 331.626 250.529V250.529Z" fill="#CE7A63"/>
<path d="M346.688 144.429C347.508 144.955 347.973 145.296 348.561 145.729L350.202 146.952C351.27 147.773 352.322 148.5 353.298 149.414C355.362 151.065 357.359 152.778 359.288 154.553C363.195 158.083 366.901 161.83 370.388 165.776C373.921 169.784 377.159 174.041 380.078 178.516C381.533 180.792 382.942 183.16 384.18 185.544C385.482 187.973 386.655 190.469 387.694 193.021L388.453 194.956L388.546 195.203L388.716 195.683L389.01 196.628C389.165 197.262 389.32 197.897 389.412 198.516C389.772 200.736 389.772 202.999 389.412 205.219C388.814 208.591 387.697 211.849 386.1 214.879C383.484 219.792 380.372 224.424 376.812 228.702C373.545 232.835 370.109 236.643 366.626 240.374C364.877 242.232 363.143 244.089 361.347 245.9L358.638 248.609C357.694 249.523 356.858 250.39 355.79 251.396L341.44 234.074C342.229 233.532 343.22 232.804 344.103 232.123L346.796 229.987C348.576 228.547 350.356 227.092 352.059 225.544C355.428 222.552 358.627 219.373 361.641 216.024C364.426 212.982 366.861 209.638 368.901 206.055C369.599 204.818 370.12 203.489 370.449 202.108C370.449 201.705 370.449 201.519 370.449 201.612C370.444 201.643 370.444 201.674 370.449 201.705C370.443 201.736 370.443 201.767 370.449 201.798V201.628L369.877 200.188C366.52 192.314 361.722 185.137 355.728 179.027C352.688 175.83 349.418 172.861 345.945 170.141C344.211 168.779 342.415 167.479 340.62 166.24C339.706 165.621 338.808 165.002 337.895 164.445L336.533 163.64L335.341 162.974L346.688 144.429Z" fill="#30B2FE"/>
<path opacity="0.7" d="M346.688 144.429C347.508 144.955 347.973 145.296 348.561 145.729L350.202 146.952C351.27 147.773 352.322 148.5 353.298 149.414C355.362 151.065 357.359 152.778 359.288 154.553C363.195 158.083 366.901 161.83 370.388 165.776C373.921 169.784 377.159 174.041 380.078 178.516C381.533 180.792 382.942 183.16 384.18 185.544C385.482 187.973 386.655 190.469 387.694 193.021L388.453 194.956L388.546 195.203L388.716 195.683L389.01 196.628C389.165 197.262 389.32 197.897 389.412 198.516C389.772 200.736 389.772 202.999 389.412 205.219C388.814 208.591 387.697 211.849 386.1 214.879C383.484 219.792 380.372 224.424 376.812 228.702C373.545 232.835 370.109 236.643 366.626 240.374C364.877 242.232 363.143 244.089 361.347 245.9L358.638 248.609C357.694 249.523 356.858 250.39 355.79 251.396L341.44 234.074C342.229 233.532 343.22 232.804 344.103 232.123L346.796 229.987C348.576 228.547 350.356 227.092 352.059 225.544C355.428 222.552 358.627 219.373 361.641 216.024C364.426 212.982 366.861 209.638 368.901 206.055C369.599 204.818 370.12 203.489 370.449 202.108C370.449 201.705 370.449 201.519 370.449 201.612C370.444 201.643 370.444 201.674 370.449 201.705C370.443 201.736 370.443 201.767 370.449 201.798V201.628L369.877 200.188C366.52 192.314 361.722 185.137 355.728 179.027C352.688 175.83 349.418 172.861 345.945 170.141C344.211 168.779 342.415 167.479 340.62 166.24C339.706 165.621 338.808 165.002 337.895 164.445L336.533 163.64L335.341 162.974L346.688 144.429Z" fill="white"/>
<path d="M531.194 296.365H71.9177V315.019H531.194V296.365Z" fill="#30B2FE"/>
<path opacity="0.6" d="M531.194 296.365H71.9177V315.019H531.194V296.365Z" fill="white"/>
<path opacity="0.3" d="M531.194 296.365H490.992V315.019H531.194V296.365Z" fill="#30B2FE"/>
<path d="M523.005 315.019H80.0911V557.42H523.005V315.019Z" fill="#30B2FE"/>
<path opacity="0.5" d="M523.005 315.019H80.0911V557.42H523.005V315.019Z" fill="white"/>
<path opacity="0.3" d="M523.02 315.019H499.181V557.42H523.02V315.019Z" fill="#30B2FE"/>
<path opacity="0.3" d="M523.005 315.019H80.0911V321.164H523.005V315.019Z" fill="#30B2FE"/>
<path opacity="0.3" d="M290.279 495.252C326.306 495.252 355.511 466.047 355.511 430.02C355.511 393.993 326.306 364.787 290.279 364.787C254.252 364.787 225.046 393.993 225.046 430.02C225.046 466.047 254.252 495.252 290.279 495.252Z" fill="#30B2FE"/>
<path d="M286.084 495.252C322.111 495.252 351.316 466.047 351.316 430.02C351.316 393.993 322.111 364.787 286.084 364.787C250.057 364.787 220.851 393.993 220.851 430.02C220.851 466.047 250.057 495.252 286.084 495.252Z" fill="#30B2FE"/>
<path d="M283.978 495.252C320.005 495.252 349.211 466.047 349.211 430.02C349.211 393.993 320.005 364.787 283.978 364.787C247.951 364.787 218.746 393.993 218.746 430.02C218.746 466.047 247.951 495.252 283.978 495.252Z" fill="white"/>
<path d="M290.635 391.01H277.322C274.885 391.01 272.91 392.985 272.91 395.422V464.617C272.91 467.054 274.885 469.029 277.322 469.029H290.635C293.071 469.029 295.047 467.054 295.047 464.617V395.422C295.047 392.985 293.071 391.01 290.635 391.01Z" fill="#30B2FE"/>
<path d="M322.988 436.661V423.348C322.988 420.911 321.013 418.936 318.576 418.936H249.38C246.944 418.936 244.969 420.911 244.969 423.348V436.661C244.969 439.097 246.944 441.072 249.38 441.072H318.576C321.013 441.072 322.988 439.097 322.988 436.661Z" fill="#30B2FE"/>
<path d="M503.005 286.04H383.747L399.18 211.705H518.423L503.005 286.04Z" fill="#30B2FE"/>
<path opacity="0.3" d="M503.005 286.04H383.747L399.18 211.705H518.423L503.005 286.04Z" fill="white"/>
<path opacity="0.3" d="M475.93 267.557H425.883L432.524 235.56H482.571L475.93 267.557Z" fill="white"/>
<path opacity="0.3" d="M422.896 267.557H425.883L432.524 235.56H429.537L422.896 267.557Z" fill="#30B2FE"/>
<path opacity="0.3" d="M452.571 253.006H443.593L444.939 286.04H453.902L452.571 253.006Z" fill="#30B2FE"/>
<path opacity="0.7" d="M385.759 286.04H383.747L399.18 211.705H401.193L385.759 286.04Z" fill="white"/>
<path d="M452.571 296.35H474.119L466.441 251.551H444.893L452.571 296.35Z" fill="#30B2FE"/>
<path opacity="0.2" d="M452.571 296.35H474.119L466.441 251.551H444.893L452.571 296.35Z" fill="white"/>
<path d="M450.636 296.35H452.571L444.893 251.551H442.958L450.636 296.35Z" fill="#30B2FE"/>
<path d="M451.534 293.811H434.722L430.326 296.35H451.534V293.811Z" fill="#30B2FE"/>
<path d="M230.99 265.065H202.476V296.35H230.99V265.065Z" fill="#30B2FE"/>
<path d="M213.993 265.065H230.99L236.021 257.449H219.024L213.993 265.065Z" fill="#30B2FE"/>
<path opacity="0.3" d="M202.491 296.365H219.489V265.08H202.491V296.365Z" fill="white"/>
<path opacity="0.3" d="M230.99 276.117H208.575V290.034H230.99V276.117Z" fill="white"/>
<path d="M219.473 265.065H202.476L197.445 257.449H214.442L219.473 265.065Z" fill="#30B2FE"/>
<path opacity="0.3" d="M219.473 265.065H202.476L197.445 257.449H214.442L219.473 265.065Z" fill="white"/>
</g>
<defs>
<clipPath id="clip0_222_270">
<rect width="595" height="577" fill="white"/>
</clipPath>
</defs>
</svg>
