<svg width="40" height="40" viewBox="0 0 40 40" fill="none" xmlns="http://www.w3.org/2000/svg">
<path fill-rule="evenodd" clip-rule="evenodd" d="M8.1875 2C8.1875 1.24061 7.57189 0.625 6.8125 0.625C6.05311 0.625 5.4375 1.24061 5.4375 2V5.4375H2C1.24061 5.4375 0.625 6.05311 0.625 6.8125C0.625 7.57189 1.24061 8.1875 2 8.1875H5.4375V11.625C5.4375 12.3844 6.05311 13 6.8125 13C7.57189 13 8.1875 12.3844 8.1875 11.625V8.1875H11.625C12.3844 8.1875 13 7.57189 13 6.8125C13 6.05311 12.3844 5.4375 11.625 5.4375H8.1875V2ZM29.9142 27.0858L28.5 28.5L28.4936 28.5062C28.2427 28.7498 20.7376 36.0336 18.7712 38C16.7712 40 12.0172 41.1997 7.39418 37.5C2.77115 33.8003 3.53434 27.2368 5.77115 25C8.00796 22.7632 15.5 15.5 15.5 15.5L15.5 15.5L16.9142 14.0858L24.5 6.49998C26.5 4.5 31.254 3.30031 35.877 6.99999C40.5 10.6997 39.7368 17.2632 37.5 19.5L29.9142 27.0858ZM36.0858 18.0858C36.6875 17.4841 37.3539 15.9051 37.263 13.8887C37.1766 11.9726 36.4108 9.98878 34.6273 8.56152C30.7666 5.4719 27.1636 6.66481 25.9142 7.9142L18.3285 15.5L28.5 25.6716L36.0858 18.0858Z" fill="gray"/>
</svg>
